Coordinates
version=1
nRows=4
nColumns=63
inDegrees=yes

Units are S.I. units (second, meters, Newtons, ...)
If the header above contains a line with 'inDegrees', this indicates whether rotational values are in degrees (yes) or radians (no).

endheader
time	pelvis_tilt	pelvis_list	pelvis_rotation	pelvis_tx	pelvis_ty	pelvis_tz	hip_flexion_r	hip_adduction_r	hip_rotation_r	knee_angle_r	knee_angle_r_beta	ankle_angle_r	subtalar_angle_r	mtp_angle_r	hip_flexion_l	hip_adduction_l	hip_rotation_l	knee_angle_l	knee_angle_l_beta	ankle_angle_l	subtalar_angle_l	mtp_angle_l	L5_S1_Flex_Ext	L5_S1_Lat_Bending	L5_S1_axial_rotation	L4_L5_Flex_Ext	L4_L5_Lat_Bending	L4_L5_axial_rotation	L3_L4_Flex_Ext	L3_L4_Lat_Bending	L3_L4_axial_rotation	L2_L3_Flex_Ext	L2_L3_Lat_Bending	L2_L3_axial_rotation	L1_L2_Flex_Ext	L1_L2_Lat_Bending	L1_L2_axial_rotation	L1_T12_Flex_Ext	L1_T12_Lat_Bending	L1_T12_axial_rotation	Abs_r3	Abs_r2	Abs_r1	Abs_t1	Abs_t2	neck_flexion	neck_bending	neck_rotation	arm_flex_r	arm_add_r	arm_rot_r	elbow_flex_r	pro_sup_r	wrist_flex_r	wrist_dev_r	arm_flex_l	arm_add_l	arm_rot_l	elbow_flex_l	pro_sup_l	wrist_flex_l	wrist_dev_l
      2.75862069	    -12.95136799	    -38.14152472	     82.43963546	      0.27364147	      0.87589872	      0.41379004	     65.26662935	     -7.89225990	      3.58078862	     53.09055268	      0.92660495	     53.79103849	     -1.35808947	      0.00000000	     62.94469351	      0.36221200	    -12.59708934	     49.28297283	      0.86015014	     52.46190426	     18.92948709	      0.00000000	      0.52106981	     -0.92332076	      0.07406176	      0.96767874	     -1.22801661	      0.07869062	      0.85606559	     -2.24496209	      0.07869062	      0.59553069	     -2.24496209	      0.06480404	      0.48386543	     -1.88283569	      0.06017518	      0.29773929	     -1.43022386	      0.05554632	      3.72194955	    -10.44478910	      0.41190928	      0.00000000	      0.00000000	     28.31168919	     -0.88000048	     -3.81169862	     21.78802937	    -13.75751732	     26.60685888	     82.39714453	     83.24282058	     -1.71627678	     -1.65171462	     30.61989284	    -12.64349776	     35.59177966	     79.94869159	     83.30480052	      4.42435224	     11.98088981
      2.77586207	     -9.92184377	    -39.65336938	     84.79029304	      0.26862348	      0.86949457	      0.41633911	     66.38370510	     -7.60064498	      0.56076468	     53.51938505	      0.93408948	     54.34768698	     -0.32346050	      0.00000000	     65.60886704	     -0.38907017	     -9.84885147	     51.33944808	      0.89604241	     52.81056450	     18.83403000	      0.00000000	      0.60363729	     -0.48108031	     -0.12225866	      1.12101482	     -0.63983681	     -0.12989983	      0.99171571	     -1.16969866	     -0.12989983	      0.68989706	     -1.16969866	     -0.10697633	      0.56053759	     -0.98101896	     -0.09933516	      0.34491835	     -0.74519340	     -0.09169400	      4.31172083	     -5.44207665	     -0.67996600	      0.00000000	      0.00000000	     28.31737682	     -2.04889535	      2.78560152	     22.23495203	    -15.22163443	     25.78476501	     83.89444919	     81.08940437	      4.43231087	      0.09487859	     29.83725974	    -10.67132073	     33.04956290	     80.07833049	     83.88207117	      5.57682490	     11.75194965
      2.79310345	     -9.77310891	    -40.65366158	     85.12849242	      0.26709529	      0.86361310	      0.41892295	     68.07927111	     -7.95687125	      0.13300946	     54.62072909	      0.95331156	     55.09972222	      0.62764180	      0.00000000	     67.34573333	     -0.28022613	     -9.43394241	     52.40874941	      0.91470523	     53.06113824	     18.81941976	      0.00000000	      0.63323733	     -0.41827622	     -0.12694336	      1.17598505	     -0.55630737	     -0.13487732	      1.04034561	     -1.01699680	     -0.13487732	      0.72372695	     -1.01699680	     -0.11107544	      0.58802419	     -0.85294887	     -0.10314148	      0.36183181	     -0.64790987	     -0.09520752	      4.52315093	     -4.73162427	     -0.70602089	      0.00000000	      0.00000000	     28.33424325	     -2.44623290	      3.83488710	     22.20173903	    -15.65642295	     24.55984401	     85.33949321	     81.20753822	      7.05823284	      1.12207431	     30.33946465	    -10.21789756	     33.03732534	     79.98569814	     84.20036130	      5.89817874	      9.05770099
      2.81034483	    -10.04215340	    -41.65831926	     85.24366823	      0.26623506	      0.85753651	      0.42181347	     69.95578580	     -8.37608950	      0.16064321	     55.81638384	      0.97417967	     55.88942833	      1.35121613	      0.00000000	     69.11742918	     -0.08490940	     -9.44778349	     53.43120758	      0.93255050	     53.57312707	     18.82472060	      0.00000000	      0.66808866	     -0.40539896	     -0.14775105	      1.24070744	     -0.53918061	     -0.15698549	      1.09760285	     -0.98568702	     -0.15698549	      0.76355852	     -0.98568702	     -0.12928217	      0.62038713	     -0.82668955	     -0.12004773	      0.38174586	     -0.62796298	     -0.11081329	      4.77209046	     -4.58595408	     -0.82174702	      0.00000000	      0.00000000	     28.35531109	     -2.64056788	      4.73369445	     22.50032145	    -16.05714558	     23.74612089	     86.79645232	     81.84006375	      9.57880515	      2.91137857	     30.80597379	    -10.14913942	     33.27197890	     79.83039510	     84.78656739	      6.28545676	      5.01390552
